<svg width="146" height="42" viewBox="0 0 146 42" fill="none" xmlns="http://www.w3.org/2000/svg">
<g clip-path="url(#clip0_477_548)">
<path d="M39.3161 5.44629H33.5547V29.2472H39.3161V5.44629Z" fill="white"/>
<path d="M62.6593 20.114L46.1479 5.53138L46.038 5.44629H42.2266V29.2508H47.9561V14.9624L64.4994 29.1657L64.6093 29.2508H68.4207V5.44629H62.6593V20.114Z" fill="white"/>
<path d="M70.7246 10.7681H80.3471V29.2508H86.0766V10.7681H95.6672V5.44629H70.7246V10.7681Z" fill="white"/>
<path d="M98.125 29.2508H120.699V23.929H103.855V19.7914H119.859V14.5299H103.855V10.7681H120.419V5.44629H98.125V29.2508Z" fill="white"/>
<path d="M129.159 23.929V5.44629H123.43V29.2508H146V23.929H129.159Z" fill="white"/>
<path d="M11.4841 10.7959H21.7022C23.5636 10.7959 24.9498 11.8844 24.9498 13.6642C24.9498 15.4441 23.6451 16.5751 21.7022 16.5751H11.4841V10.7959ZM22.2517 5.47769H11.4841V10.7959H5.58789V29.2325H11.4734V22.0068H22.2872C27.3892 22.0068 30.9524 18.5074 30.9524 13.4976C30.9524 8.61545 27.5239 5.45996 22.2234 5.45996" fill="white"/>
<path d="M11.4768 5.47425V0H0V10.7783H5.59125V5.47425H11.4768Z" fill="#0037B8"/>
<path d="M6.81496 35.8419H8.16933C9.08053 35.8419 9.60526 36.278 9.60526 37.0367V37.058C9.60526 37.7671 9.02734 38.2529 8.16933 38.2529H6.81496V35.8419ZM8.26861 34.5762H5.45703V41.7806H6.81496V39.515H8.13033C9.86408 39.515 10.9667 38.54 10.9667 37.0332V37.0155C10.9667 35.537 9.90308 34.5833 8.25443 34.5833" fill="white" fill-opacity="0.5"/>
<path d="M13.2603 38.7705H16.7526V37.526H13.2603V35.8242H17.1993V34.5762H11.9023V41.7806H17.249V40.5326H13.2603V38.7705Z" fill="white" fill-opacity="0.5"/>
<path d="M19.7237 35.8414H21.4361C22.3225 35.8414 22.8118 36.235 22.8118 36.9441V36.9653C22.8118 37.6425 22.2764 38.0786 21.4468 38.0786H19.7237V35.8414ZM24.191 36.9051V36.8873C24.207 36.304 23.9916 35.7381 23.5918 35.3131C23.314 35.0623 22.9892 34.8689 22.6363 34.7442C22.2833 34.6194 21.9092 34.5658 21.5354 34.5863H18.3516V41.7908H19.7095V39.3266H21.1277L22.8402 41.7908H24.4463L22.5459 39.0855C23.0245 38.962 23.4463 38.6782 23.7411 38.2814C24.0359 37.8847 24.1859 37.399 24.1662 36.9051" fill="white" fill-opacity="0.5"/>
<path d="M30.6509 39.7241C30.0659 40.2808 29.5341 40.6247 28.6973 40.6247C27.4245 40.6247 26.4672 39.561 26.4672 38.1783V38.157C26.4672 36.7743 27.4245 35.7319 28.6973 35.7319C29.056 35.74 29.4094 35.8202 29.7364 35.9676C30.0635 36.115 30.3576 36.3266 30.6013 36.5899L30.6509 36.6395L31.5267 35.6184L31.4806 35.5759C31.1231 35.2048 30.6914 34.9132 30.2137 34.7201C29.736 34.5271 29.2229 34.4369 28.708 34.4555C28.2201 34.4486 27.7359 34.5406 27.2847 34.726C26.8334 34.9115 26.4244 35.1865 26.0824 35.5344C25.7404 35.8824 25.4725 36.2961 25.2949 36.7505C25.1173 37.2049 25.0336 37.6906 25.049 38.1783V38.1996C25.0323 38.6824 25.1134 39.1636 25.2877 39.6142C25.462 40.0648 25.7257 40.4754 26.063 40.8213C26.4003 41.1672 26.8041 41.4412 27.2502 41.6268C27.6962 41.8123 28.1752 41.9057 28.6583 41.9011C29.2015 41.9152 29.7409 41.8083 30.2377 41.5882C30.7344 41.368 31.1759 41.0401 31.5302 40.6282L31.5763 40.5821L30.7005 39.678L30.6509 39.7241Z" fill="white" fill-opacity="0.5"/>
<path d="M33.8595 38.7705H37.3483V37.526H33.8595V35.8242H37.7986V34.5762H32.498V41.7806H37.8482V40.5326H33.8595V38.7705Z" fill="white" fill-opacity="0.5"/>
<path d="M40.3345 35.8419H41.6889C42.6001 35.8419 43.1071 36.278 43.1071 37.0367V37.058C43.1071 37.7671 42.5327 38.2529 41.6889 38.2529H40.3345V35.8419ZM41.7881 34.5762H38.9766V41.7806H40.3345V39.515H41.6499C43.3801 39.515 44.4863 38.54 44.4863 37.0332V37.0155C44.4863 35.537 43.4226 34.5833 41.774 34.5833" fill="white" fill-opacity="0.5"/>
<path d="M44.9102 35.8632H47.119V41.7806H48.4876V35.8632H50.6964V34.5762H44.9102V35.8632Z" fill="white" fill-opacity="0.5"/>
<path d="M53.0825 34.5762H51.7246V41.7771H53.0825V34.5762Z" fill="white" fill-opacity="0.5"/>
<path d="M55.718 38.1565C55.7021 37.845 55.75 37.5335 55.8587 37.2411C55.9673 36.9487 56.1345 36.6815 56.3499 36.4559C56.5653 36.2303 56.8245 36.051 57.1116 35.929C57.3987 35.807 57.7077 35.7448 58.0196 35.7462C58.3315 35.7477 58.6399 35.8127 58.9258 35.9374C59.2118 36.0621 59.4693 36.2438 59.6826 36.4714C59.8959 36.699 60.0606 36.9677 60.1665 37.2611C60.2725 37.5545 60.3175 37.8664 60.2987 38.1778V38.1991C60.2987 39.5818 59.3202 40.6242 58.019 40.6242C57.7052 40.6213 57.3953 40.5549 57.1079 40.4291C56.8205 40.3032 56.5615 40.1205 56.3465 39.892C56.1315 39.6634 55.965 39.3937 55.857 39.0991C55.749 38.8046 55.7017 38.4912 55.718 38.1778V38.1565ZM58.019 34.455C57.5288 34.4498 57.0425 34.5426 56.5887 34.7278C56.1349 34.9131 55.7226 35.1872 55.3762 35.534C55.0297 35.8808 54.756 36.2933 54.5712 36.7473C54.3863 37.2013 54.2941 37.6877 54.2998 38.1778V38.1991C54.2886 38.6879 54.3767 39.1739 54.5585 39.6278C54.7404 40.0817 55.0123 40.494 55.3579 40.84C55.7034 41.1859 56.1155 41.4582 56.5692 41.6405C57.0229 41.8228 57.5089 41.9113 57.9977 41.9006C58.4879 41.9058 58.9741 41.8131 59.428 41.6278C59.8818 41.4425 60.2941 41.1684 60.6405 40.8216C60.987 40.4749 61.2606 40.0623 61.4455 39.6083C61.6303 39.1543 61.7226 38.668 61.7169 38.1778V38.1565C61.7286 37.6676 61.6409 37.1813 61.4592 36.7272C61.2776 36.2731 61.0056 35.8606 60.66 35.5145C60.3143 35.1685 59.902 34.8962 59.4481 34.7141C58.9941 34.532 58.508 34.4439 58.019 34.455Z" fill="white" fill-opacity="0.5"/>
<path d="M67.7297 39.3307L64.1203 34.6045L64.0991 34.5762H62.8652V41.7806H64.2019V36.8843L67.9211 41.7523L67.9424 41.7806H69.0699V34.5762H67.7297V39.3307Z" fill="white" fill-opacity="0.5"/>
<path d="M74.7349 34.5762H73.377V41.7771H74.7349V34.5762Z" fill="white" fill-opacity="0.5"/>
<path d="M81.1277 39.3307L77.5149 34.6045L77.4971 34.5762H76.2598V41.7806H77.6V36.8843L81.3192 41.7523L81.3405 41.7806H82.4644V34.5762H81.1277V39.3307Z" fill="white" fill-opacity="0.5"/>
<path d="M83.4219 35.8632H85.6307V41.7806H86.9993V35.8632H89.2081V34.5762H83.4219V35.8632Z" fill="white" fill-opacity="0.5"/>
<path d="M91.5239 38.7705H95.0163V37.526H91.5239V35.8242H95.4665V34.5762H90.166V41.7806H95.5162V40.5326H91.5239V38.7705Z" fill="white" fill-opacity="0.5"/>
<path d="M97.9907 34.5762H96.6328V41.7806H101.653V40.5149H97.9907V34.5762Z" fill="white" fill-opacity="0.5"/>
<path d="M103.948 34.5762H102.59V41.7806H107.61V40.5149H103.948V34.5762Z" fill="white" fill-opacity="0.5"/>
<path d="M109.975 34.5762H108.617V41.7771H109.975V34.5762Z" fill="white" fill-opacity="0.5"/>
<path d="M114.743 38.9117H116.516V40.1314C116.044 40.4628 115.48 40.6388 114.903 40.6349C113.549 40.6349 112.602 39.6244 112.602 38.1778V38.1566C112.602 36.8199 113.584 35.7314 114.793 35.7314C115.144 35.7209 115.494 35.781 115.822 35.9083C116.15 36.0356 116.448 36.2274 116.701 36.4724L116.75 36.515L117.626 35.4726L117.576 35.4301C116.833 34.7601 115.856 34.4099 114.857 34.4551C114.371 34.454 113.889 34.5501 113.441 34.7376C112.992 34.9251 112.585 35.2003 112.245 35.5471C111.904 35.8938 111.636 36.3051 111.456 36.7569C111.276 37.2086 111.189 37.6917 111.198 38.1778V38.1991C111.198 40.376 112.712 41.9006 114.878 41.9006C115.964 41.8981 117.013 41.5012 117.828 40.7838L117.849 40.7625V37.6956H114.751L114.743 38.9117Z" fill="white" fill-opacity="0.5"/>
<path d="M120.458 38.7705H123.95V37.526H120.458V35.8242H124.397V34.5762H119.1V41.7806H124.446V40.5326H120.458V38.7705Z" fill="white" fill-opacity="0.5"/>
<path d="M130.429 39.3307L126.82 34.6045L126.798 34.5762H125.564V41.7806H126.905V36.8843L130.624 41.7523L130.645 41.7806H131.769V34.5762H130.429V39.3307Z" fill="white" fill-opacity="0.5"/>
<path d="M138.516 39.7241C137.931 40.2808 137.399 40.6247 136.563 40.6247C135.29 40.6247 134.332 39.561 134.332 38.1783V38.157C134.332 36.7743 135.29 35.7319 136.563 35.7319C136.921 35.74 137.275 35.8202 137.602 35.9676C137.929 36.115 138.223 36.3266 138.467 36.5899L138.52 36.6395L139.392 35.6184L139.346 35.5759C138.988 35.2048 138.557 34.9132 138.079 34.7201C137.601 34.5271 137.088 34.4369 136.573 34.4555C136.085 34.4486 135.601 34.5406 135.15 34.726C134.699 34.9115 134.29 35.1865 133.948 35.5344C133.606 35.8824 133.338 36.2961 133.16 36.7505C132.983 37.2049 132.899 37.6906 132.914 38.1783V38.1996C132.897 38.6824 132.979 39.1636 133.153 39.6142C133.327 40.0648 133.591 40.4754 133.928 40.8213C134.265 41.1672 134.669 41.4412 135.115 41.6268C135.561 41.8123 136.04 41.9057 136.524 41.9011C137.067 41.9147 137.607 41.8076 138.104 41.5875C138.601 41.3674 139.044 41.0398 139.399 40.6282L139.442 40.5821L138.566 39.678L138.516 39.7241Z" fill="white" fill-opacity="0.5"/>
<path d="M141.725 40.5326V38.7705H145.214V37.526H141.725V35.8206H145.664V34.5762H140.363V41.7806H145.713V40.5326H141.725Z" fill="white" fill-opacity="0.5"/>
</g>
<defs>
<clipPath id="clip0_477_548">
<rect width="146" height="41.9007" fill="white"/>
</clipPath>
</defs>
</svg>
